<?xml version="1.0" encoding="utf-8"?>
<!-- Generator: Adobe Illustrator 21.1.0, SVG Export Plug-In . SVG Version: 6.00 Build 0)  -->
<svg version="1.1" id="Layer_1" xmlns="http://www.w3.org/2000/svg" xmlns:xlink="http://www.w3.org/1999/xlink" x="0px" y="0px"
	 viewBox="0 0 17 17.2" style="enable-background:new 0 0 17 17.2;" xml:space="preserve">
<g>
	<g>
		<defs>
			<rect id="SVGID_1_" x="-943" y="-44" width="1024" height="1399"/>
		</defs>
		<clipPath id="SVGID_2_">
			<use xlink:href="#SVGID_1_"  style="overflow:visible;"/>
		</clipPath>
	</g>
</g>
<g>
	<g>
		<path d="M10.9,8.4l5.6-5.5c0.7-0.6,0.7-1.7,0-2.4s-1.8-0.7-2.5,0L8.5,5.9L3,0.6c-0.7-0.7-1.8-0.7-2.5,0c-0.7,0.6-0.7,1.7,0,2.4
			l5.6,5.4l-5.6,5.4c-0.7,0.7-0.7,1.8,0,2.4C1.2,17,2.3,17,3,16.2L8.5,11l5.5,5.4c0.7,0.7,1.8,0.7,2.5,0s0.7-1.8,0-2.4L10.9,8.4z"/>
		<g>
			<g>
				<defs>
					<rect id="SVGID_3_" x="-943" y="-1338.2" width="1024" height="1399"/>
				</defs>
				<clipPath id="SVGID_4_">
					<use xlink:href="#SVGID_3_"  style="overflow:visible;"/>
				</clipPath>
			</g>
		</g>
	</g>
</g>
</svg>
